<mxfile host="app.diagrams.net" agent="Mozilla/5.0 (Macintosh; Intel Mac OS X 10_15_7) AppleWebKit/537.36 (KHTML, like Gecko) Chrome/137.0.0.0 Safari/537.36" version="27.1.1">
  <diagram name="Сторінка-1" id="9oCG8kmTqNMSUX1Invlx">
    <mxGraphModel dx="960" dy="572" grid="1" gridSize="10" guides="1" tooltips="1" connect="1" arrows="1" fold="1" page="1" pageScale="1" pageWidth="827" pageHeight="1169" math="0" shadow="0">
      <root>
        <mxCell id="0" />
        <mxCell id="1" parent="0" />
        <mxCell id="fwhGk6dTN_KpZu4werMf-2" value="Utils" style="swimlane;fontStyle=0;childLayout=stackLayout;horizontal=1;startSize=26;fillColor=none;horizontalStack=0;resizeParent=1;resizeParentMax=0;resizeLast=0;collapsible=1;marginBottom=0;whiteSpace=wrap;html=1;" vertex="1" parent="1">
          <mxGeometry x="110" y="310" width="180" height="78" as="geometry" />
        </mxCell>
        <mxCell id="fwhGk6dTN_KpZu4werMf-3" value="+ getIntegerInput(string): int" style="text;strokeColor=none;fillColor=none;align=left;verticalAlign=top;spacingLeft=4;spacingRight=4;overflow=hidden;rotatable=0;points=[[0,0.5],[1,0.5]];portConstraint=eastwest;whiteSpace=wrap;html=1;" vertex="1" parent="fwhGk6dTN_KpZu4werMf-2">
          <mxGeometry y="26" width="180" height="26" as="geometry" />
        </mxCell>
        <mxCell id="fwhGk6dTN_KpZu4werMf-5" value="+ getStringInput(string): string" style="text;strokeColor=none;fillColor=none;align=left;verticalAlign=top;spacingLeft=4;spacingRight=4;overflow=hidden;rotatable=0;points=[[0,0.5],[1,0.5]];portConstraint=eastwest;whiteSpace=wrap;html=1;" vertex="1" parent="fwhGk6dTN_KpZu4werMf-2">
          <mxGeometry y="52" width="180" height="26" as="geometry" />
        </mxCell>
        <mxCell id="fwhGk6dTN_KpZu4werMf-6" value="Main" style="swimlane;fontStyle=1;align=center;verticalAlign=top;childLayout=stackLayout;horizontal=1;startSize=26;horizontalStack=0;resizeParent=1;resizeParentMax=0;resizeLast=0;collapsible=1;marginBottom=0;whiteSpace=wrap;html=1;" vertex="1" parent="1">
          <mxGeometry x="150" y="220" width="140" height="52" as="geometry" />
        </mxCell>
        <mxCell id="fwhGk6dTN_KpZu4werMf-9" value="+ main()" style="text;strokeColor=none;fillColor=none;align=left;verticalAlign=top;spacingLeft=4;spacingRight=4;overflow=hidden;rotatable=0;points=[[0,0.5],[1,0.5]];portConstraint=eastwest;whiteSpace=wrap;html=1;" vertex="1" parent="fwhGk6dTN_KpZu4werMf-6">
          <mxGeometry y="26" width="140" height="26" as="geometry" />
        </mxCell>
        <mxCell id="fwhGk6dTN_KpZu4werMf-10" value="Menu" style="swimlane;fontStyle=1;align=center;verticalAlign=top;childLayout=stackLayout;horizontal=1;startSize=26;horizontalStack=0;resizeParent=1;resizeParentMax=0;resizeLast=0;collapsible=1;marginBottom=0;whiteSpace=wrap;html=1;" vertex="1" parent="1">
          <mxGeometry x="130" y="80" width="160" height="112" as="geometry" />
        </mxCell>
        <mxCell id="fwhGk6dTN_KpZu4werMf-11" value="+ main()" style="text;strokeColor=none;fillColor=none;align=left;verticalAlign=top;spacingLeft=4;spacingRight=4;overflow=hidden;rotatable=0;points=[[0,0.5],[1,0.5]];portConstraint=eastwest;whiteSpace=wrap;html=1;" vertex="1" parent="fwhGk6dTN_KpZu4werMf-10">
          <mxGeometry y="26" width="160" height="26" as="geometry" />
        </mxCell>
        <mxCell id="fwhGk6dTN_KpZu4werMf-12" value="" style="line;strokeWidth=1;fillColor=none;align=left;verticalAlign=middle;spacingTop=-1;spacingLeft=3;spacingRight=3;rotatable=0;labelPosition=right;points=[];portConstraint=eastwest;strokeColor=inherit;" vertex="1" parent="fwhGk6dTN_KpZu4werMf-10">
          <mxGeometry y="52" width="160" height="8" as="geometry" />
        </mxCell>
        <mxCell id="fwhGk6dTN_KpZu4werMf-13" value="- serviceManager()" style="text;strokeColor=none;fillColor=none;align=left;verticalAlign=top;spacingLeft=4;spacingRight=4;overflow=hidden;rotatable=0;points=[[0,0.5],[1,0.5]];portConstraint=eastwest;whiteSpace=wrap;html=1;" vertex="1" parent="fwhGk6dTN_KpZu4werMf-10">
          <mxGeometry y="60" width="160" height="26" as="geometry" />
        </mxCell>
        <mxCell id="fwhGk6dTN_KpZu4werMf-4" value="- displayMainMenu()" style="text;strokeColor=none;fillColor=none;align=left;verticalAlign=top;spacingLeft=4;spacingRight=4;overflow=hidden;rotatable=0;points=[[0,0.5],[1,0.5]];portConstraint=eastwest;whiteSpace=wrap;html=1;" vertex="1" parent="fwhGk6dTN_KpZu4werMf-10">
          <mxGeometry y="86" width="160" height="26" as="geometry" />
        </mxCell>
        <mxCell id="fwhGk6dTN_KpZu4werMf-14" value="Utils" style="swimlane;fontStyle=0;childLayout=stackLayout;horizontal=1;startSize=26;fillColor=none;horizontalStack=0;resizeParent=1;resizeParentMax=0;resizeLast=0;collapsible=1;marginBottom=0;whiteSpace=wrap;html=1;" vertex="1" parent="1">
          <mxGeometry x="110" y="420" width="180" height="78" as="geometry" />
        </mxCell>
        <mxCell id="fwhGk6dTN_KpZu4werMf-15" value="+ getIntegerInput(string)" style="text;strokeColor=none;fillColor=none;align=left;verticalAlign=top;spacingLeft=4;spacingRight=4;overflow=hidden;rotatable=0;points=[[0,0.5],[1,0.5]];portConstraint=eastwest;whiteSpace=wrap;html=1;" vertex="1" parent="fwhGk6dTN_KpZu4werMf-14">
          <mxGeometry y="26" width="180" height="26" as="geometry" />
        </mxCell>
        <mxCell id="fwhGk6dTN_KpZu4werMf-16" value="+ getStringInput(string)" style="text;strokeColor=none;fillColor=none;align=left;verticalAlign=top;spacingLeft=4;spacingRight=4;overflow=hidden;rotatable=0;points=[[0,0.5],[1,0.5]];portConstraint=eastwest;whiteSpace=wrap;html=1;" vertex="1" parent="fwhGk6dTN_KpZu4werMf-14">
          <mxGeometry y="52" width="180" height="26" as="geometry" />
        </mxCell>
        <mxCell id="fwhGk6dTN_KpZu4werMf-18" value="ServiceManager" style="swimlane;fontStyle=1;align=center;verticalAlign=top;childLayout=stackLayout;horizontal=1;startSize=26;horizontalStack=0;resizeParent=1;resizeParentMax=0;resizeLast=0;collapsible=1;marginBottom=0;whiteSpace=wrap;html=1;" vertex="1" parent="1">
          <mxGeometry x="380" y="80" width="160" height="480" as="geometry" />
        </mxCell>
        <mxCell id="fwhGk6dTN_KpZu4werMf-19" value="-string dataFilePath&lt;br/&gt;        -vector~Client~ clients&lt;br/&gt;        -vector~Car~ cars&lt;br/&gt;        -vector~Repair~ repairs&lt;br/&gt;        -vector~Part~ partsInventory&lt;br/&gt;        -int nextClientId&lt;br/&gt;        -int nextCarId&lt;br/&gt;        -int nextRepairId&lt;br/&gt;        -int nextPartId" style="text;strokeColor=none;fillColor=none;align=left;verticalAlign=top;spacingLeft=4;spacingRight=4;overflow=hidden;rotatable=0;points=[[0,0.5],[1,0.5]];portConstraint=eastwest;whiteSpace=wrap;html=1;" vertex="1" parent="fwhGk6dTN_KpZu4werMf-18">
          <mxGeometry y="26" width="160" height="154" as="geometry" />
        </mxCell>
        <mxCell id="fwhGk6dTN_KpZu4werMf-20" value="" style="line;strokeWidth=1;fillColor=none;align=left;verticalAlign=middle;spacingTop=-1;spacingLeft=3;spacingRight=3;rotatable=0;labelPosition=right;points=[];portConstraint=eastwest;strokeColor=inherit;" vertex="1" parent="fwhGk6dTN_KpZu4werMf-18">
          <mxGeometry y="180" width="160" height="8" as="geometry" />
        </mxCell>
        <mxCell id="fwhGk6dTN_KpZu4werMf-21" value="-loadDataFromFile()&lt;br/&gt;        -saveDataToFile() const&lt;br/&gt;        -generateNext...Id()&lt;br/&gt;        -find...ByIdInternal(int) const&lt;br/&gt;        +ServiceManager(string)&lt;br/&gt;        +~ServiceManager()&lt;br/&gt;        +addClient()&lt;br/&gt;        +viewClients() const&lt;br/&gt;        +addCar()&lt;br/&gt;        +viewCars() const&lt;br/&gt;        +scheduleRepair()&lt;br/&gt;        +viewRepairs() const&lt;br/&gt;        +updateRepairStatus()&lt;br/&gt;        +addPart()&lt;br/&gt;        +viewParts() const&lt;br/&gt;        +orderPart()&lt;br/&gt;        +viewFinancials() const&lt;br/&gt;        +viewStatistics() const" style="text;strokeColor=none;fillColor=none;align=left;verticalAlign=top;spacingLeft=4;spacingRight=4;overflow=hidden;rotatable=0;points=[[0,0.5],[1,0.5]];portConstraint=eastwest;whiteSpace=wrap;html=1;" vertex="1" parent="fwhGk6dTN_KpZu4werMf-18">
          <mxGeometry y="188" width="160" height="292" as="geometry" />
        </mxCell>
        <mxCell id="fwhGk6dTN_KpZu4werMf-23" value="DataStructures" style="swimlane;fontStyle=1;align=center;verticalAlign=top;childLayout=stackLayout;horizontal=1;startSize=26;horizontalStack=0;resizeParent=1;resizeParentMax=0;resizeLast=0;collapsible=1;marginBottom=0;whiteSpace=wrap;html=1;" vertex="1" parent="1">
          <mxGeometry x="600" y="80" width="160" height="178" as="geometry" />
        </mxCell>
        <mxCell id="fwhGk6dTN_KpZu4werMf-24" value="&lt;meta charset=&quot;utf-8&quot;&gt;&amp;lt;&amp;lt;Struct&amp;gt;&amp;gt; Client&#xa;        &amp;lt;&amp;lt;Struct&amp;gt;&amp;gt; Car&#xa;        &amp;lt;&amp;lt;Struct&amp;gt;&amp;gt; Repair&#xa;        &amp;lt;&amp;lt;Struct&amp;gt;&amp;gt; Part&#xa;        &amp;lt;&amp;lt;Enum&amp;gt;&amp;gt; RepairStatus&#xa;        +to_json()&#xa;        +from_json()&#xa;        +statusToString()&#xa;        +stringToStatus()" style="text;strokeColor=none;fillColor=none;align=left;verticalAlign=top;spacingLeft=4;spacingRight=4;overflow=hidden;rotatable=0;points=[[0,0.5],[1,0.5]];portConstraint=eastwest;whiteSpace=wrap;html=1;" vertex="1" parent="fwhGk6dTN_KpZu4werMf-23">
          <mxGeometry y="26" width="160" height="144" as="geometry" />
        </mxCell>
        <mxCell id="fwhGk6dTN_KpZu4werMf-25" value="" style="line;strokeWidth=1;fillColor=none;align=left;verticalAlign=middle;spacingTop=-1;spacingLeft=3;spacingRight=3;rotatable=0;labelPosition=right;points=[];portConstraint=eastwest;strokeColor=inherit;" vertex="1" parent="fwhGk6dTN_KpZu4werMf-23">
          <mxGeometry y="170" width="160" height="8" as="geometry" />
        </mxCell>
        <mxCell id="fwhGk6dTN_KpZu4werMf-27" value="" style="endArrow=classic;html=1;rounded=0;exitX=0.5;exitY=0;exitDx=0;exitDy=0;entryX=0.494;entryY=1.038;entryDx=0;entryDy=0;entryPerimeter=0;" edge="1" parent="1" source="fwhGk6dTN_KpZu4werMf-14" target="fwhGk6dTN_KpZu4werMf-5">
          <mxGeometry width="50" height="50" relative="1" as="geometry">
            <mxPoint x="390" y="250" as="sourcePoint" />
            <mxPoint x="440" y="200" as="targetPoint" />
          </mxGeometry>
        </mxCell>
        <mxCell id="fwhGk6dTN_KpZu4werMf-28" value="" style="endArrow=classic;html=1;rounded=0;exitX=0.5;exitY=0;exitDx=0;exitDy=0;entryX=0.557;entryY=1;entryDx=0;entryDy=0;entryPerimeter=0;" edge="1" parent="1" source="fwhGk6dTN_KpZu4werMf-2" target="fwhGk6dTN_KpZu4werMf-9">
          <mxGeometry width="50" height="50" relative="1" as="geometry">
            <mxPoint x="390" y="250" as="sourcePoint" />
            <mxPoint x="440" y="200" as="targetPoint" />
          </mxGeometry>
        </mxCell>
        <mxCell id="fwhGk6dTN_KpZu4werMf-29" value="" style="endArrow=classic;html=1;rounded=0;exitX=0.5;exitY=0;exitDx=0;exitDy=0;entryX=0.488;entryY=1.038;entryDx=0;entryDy=0;entryPerimeter=0;" edge="1" parent="1" source="fwhGk6dTN_KpZu4werMf-6" target="fwhGk6dTN_KpZu4werMf-4">
          <mxGeometry width="50" height="50" relative="1" as="geometry">
            <mxPoint x="390" y="250" as="sourcePoint" />
            <mxPoint x="440" y="200" as="targetPoint" />
          </mxGeometry>
        </mxCell>
        <mxCell id="fwhGk6dTN_KpZu4werMf-30" value="" style="endArrow=classic;html=1;rounded=0;exitX=0.993;exitY=-0.038;exitDx=0;exitDy=0;exitPerimeter=0;entryX=0;entryY=0.5;entryDx=0;entryDy=0;" edge="1" parent="1" source="fwhGk6dTN_KpZu4werMf-9" target="fwhGk6dTN_KpZu4werMf-19">
          <mxGeometry width="50" height="50" relative="1" as="geometry">
            <mxPoint x="330" y="280" as="sourcePoint" />
            <mxPoint x="440" y="360" as="targetPoint" />
          </mxGeometry>
        </mxCell>
        <mxCell id="fwhGk6dTN_KpZu4werMf-31" value="" style="endArrow=classic;html=1;rounded=0;exitX=0;exitY=0.5;exitDx=0;exitDy=0;entryX=1;entryY=0.25;entryDx=0;entryDy=0;" edge="1" parent="1" source="fwhGk6dTN_KpZu4werMf-21" target="fwhGk6dTN_KpZu4werMf-2">
          <mxGeometry width="50" height="50" relative="1" as="geometry">
            <mxPoint x="390" y="270" as="sourcePoint" />
            <mxPoint x="440" y="220" as="targetPoint" />
            <Array as="points">
              <mxPoint x="360" y="340" />
            </Array>
          </mxGeometry>
        </mxCell>
        <mxCell id="fwhGk6dTN_KpZu4werMf-32" value="" style="endArrow=diamondThin;endFill=1;endSize=24;html=1;rounded=0;exitX=1;exitY=0.5;exitDx=0;exitDy=0;entryX=0;entryY=0.5;entryDx=0;entryDy=0;" edge="1" parent="1" source="fwhGk6dTN_KpZu4werMf-19" target="fwhGk6dTN_KpZu4werMf-24">
          <mxGeometry width="160" relative="1" as="geometry">
            <mxPoint x="330" y="290" as="sourcePoint" />
            <mxPoint x="590" y="210" as="targetPoint" />
            <Array as="points">
              <mxPoint x="540" y="370" />
            </Array>
          </mxGeometry>
        </mxCell>
        <mxCell id="fwhGk6dTN_KpZu4werMf-35" value="JsonLib" style="html=1;whiteSpace=wrap;" vertex="1" parent="1">
          <mxGeometry x="610" y="410" width="110" height="50" as="geometry" />
        </mxCell>
      </root>
    </mxGraphModel>
  </diagram>
</mxfile>
